<svg xmlns="http://www.w3.org/2000/svg" version="1.1" viewBox="-5.0 -10.0 110.0 135.0">
 <path d="m46.086 45.82c-2.6992-3.5078-6.3867-6.3594-10.832-5.8477-4.4609 0.51953-5.2461-6.2734-0.78906-6.7852 8.3516-0.96875 14.652 4.5 18.84 11.078 1.6289 1.0078 2.9531 2.2461 3.9766 3.6602 1.9805 2.7344 2.832 6.1289 2.5977 9.7695-2.5586 0.3125-5.2578-0.10937-7.9219-1.3984-4.9375-2.3945-10.473-4.4805-15.965-5.1797 3.1523-2.1914 6.5547-3.7734 10.094-5.2969zm-18.598 15.141c-1.4766 1.3984-3.8828 1.4023-5.3711 0.015624-1.4844-1.3867-1.4922-3.6484-0.011719-5.043 1.5586-1.4727 5.7227-3.875 13.066-3.082 4.0938 0.44141 9.3672 1.8711 15.996 5.082 12.742 6.1758 20.832-6.0039 20.855-6.0391 1.1406-1.6523 3.4961-2.1211 5.2539-1.0469 1.7578 1.0742 2.2578 3.2812 1.1133 4.9336-0.03125 0.046875-11.738 17.691-30.703 8.4961-5.6953-2.7617-10.074-3.9727-13.375-4.3281-4.3008-0.46484-6.2109 0.44141-6.8203 1.0156zm38.59-23.496c2.7617 2.2461 3.1797 6.3125 0.92969 9.0742-2.2461 2.7617-6.3125 3.1797-9.0742 0.92969-2.7617-2.2461-3.1797-6.3125-0.92969-9.0742s6.3125-3.1797 9.0742-0.92969z" fill-rule="evenodd"/>
<text x="0.0" y="117.5" font-size="5.0" font-weight="bold" font-family="Arbeit Regular, Helvetica, Arial-Unicode, Arial, Sans-serif" fill="#000000">Created by fernandosurya468</text><text x="0.0" y="122.5" font-size="5.0" font-weight="bold" font-family="Arbeit Regular, Helvetica, Arial-Unicode, Arial, Sans-serif" fill="#000000">from Noun Project</text></svg>